/* XPM */
static char *_662_316742b46033fa739973fe39660ac0110bbea6598c7fcc350c458438c2758d29[] = {
/* columns rows colors chars-per-pixel */
"48 48 16 1 ",
"  c #9E8B61",
". c #A59467",
"X c #AE9F76",
"o c #B8A875",
"O c #C8B77A",
"+ c #D7C185",
"@ c #D7CB8D",
"# c black",
"$ c black",
"% c black",
"& c black",
"* c black",
"= c black",
"- c black",
"; c black",
": c black",
/* pixels */
"+O+@@@@@+@@@@@+X+O+@@@@@+@@@@@+X+O+@@@@@+@@@@@+X",
"++OOXoO+++OO++oo++OOXoO+++OO++oo++OOXoO+++OO++oo",
"O+++O+OooooOO++XO+++O+OooooOO++XO+++O+OooooOO++X",
"X..XX.  .. .  . X..XX.  .. .  . X..XX.  .. .  . ",
"+@o@@@@o@@@+OOo++@o@@@@o@@@+OOo++@o@@@@o@@@+OOo+",
"O++OoOoXoOO++++OO++OoOoXoOO++++OO++OoOoXoOO++++O",
"ooO+OOOX+++OOoooooO+OOOX+++OOoooooO+OOOX+++OOooo",
"  ..X.    ...X.   ..X.    ...X.   ..X.    ...X. ",
"+@@+OO@@@@@@@@+o+@@+OO@@@@@@@@+o+@@+OO@@@@@@@@+o",
"+O++++OoooOoOooX+O++++OoooOoOooX+O++++OoooOoOooX",
"@+OOooooOOOOoo+o@+OOooooOOOOoo+o@+OOooooOOOOoo+o",
"  .XX.   .X..     .XX.   .X..     .XX.   .X..   ",
"@o+@@++o@@@o@+@@@o+@@++o@@@o@+@@@o+@@++o@@@o@+@@",
"OO++ooOoo++O+OOOOO++ooOoo++O+OOOOO++ooOoo++O+OOO",
"OooO+OoX++OoooooOooO+OoX++OoooooOooO+OoX++Oooooo",
" ..  .XXX. .     ..  .XXX. .     ..  .XXX. .    ",
"+O+@@@@@+@@@@@+X+O+@@@@@+@@@@@+X+O+@@@@@+@@@@@+X",
"++OOXoO+++OO++oo++OOXoO+++OO++oo++OOXoO+++OO++oo",
"O+++O+OooooOO++XO+++O+OooooOO++XO+++O+OooooOO++X",
"X..XX.  .. .  . X..XX.  .. .  . X..XX.  .. .  . ",
"+@o@@@@o@@@+OOo++@o@@@@o@@@+OOo++@o@@@@o@@@+OOo+",
"O++OoOoXoOO++++OO++OoOoXoOO++++OO++OoOoXoOO++++O",
"ooO+OOOX+++OOoooooO+OOOX+++OOoooooO+OOOX+++OOooo",
"  ..X.    ...X.   ..X.    ...X.   ..X.    ...X. ",
"+@@+OO@@@@@@@@+o+@@+OO@@@@@@@@+o+@@+OO@@@@@@@@+o",
"+O++++OoooOoOooX+O++++OoooOoOooX+O++++OoooOoOooX",
"@+OOooooOOOOoo+o@+OOooooOOOOoo+o@+OOooooOOOOoo+o",
"  .XX.   .X..     .XX.   .X..     .XX.   .X..   ",
"@o+@@++o@@@o@+@@@o+@@++o@@@o@+@@@o+@@++o@@@o@+@@",
"OO++ooOoo++O+OOOOO++ooOoo++O+OOOOO++ooOoo++O+OOO",
"OooO+OoX++OoooooOooO+OoX++OoooooOooO+OoX++Oooooo",
" ..  .XXX. .     ..  .XXX. .     ..  .XXX. .    ",
"+O+@@@@@+@@@@@+X+O+@@@@@+@@@@@+X+O+@@@@@+@@@@@+X",
"++OOXoO+++OO++oo++OOXoO+++OO++oo++OOXoO+++OO++oo",
"O+++O+OooooOO++XO+++O+OooooOO++XO+++O+OooooOO++X",
"X..XX.  .. .  . X..XX.  .. .  . X..XX.  .. .  . ",
"+@o@@@@o@@@+OOo++@o@@@@o@@@+OOo++@o@@@@o@@@+OOo+",
"O++OoOoXoOO++++OO++OoOoXoOO++++OO++OoOoXoOO++++O",
"ooO+OOOX+++OOoooooO+OOOX+++OOoooooO+OOOX+++OOooo",
"  ..X.    ...X.   ..X.    ...X.   ..X.    ...X. ",
"+@@+OO@@@@@@@@+o+@@+OO@@@@@@@@+o+@@+OO@@@@@@@@+o",
"+O++++OoooOoOooX+O++++OoooOoOooX+O++++OoooOoOooX",
"@+OOooooOOOOoo+o@+OOooooOOOOoo+o@+OOooooOOOOoo+o",
"  .XX.   .X..     .XX.   .X..     .XX.   .X..   ",
"@o+@@++o@@@o@+@@@o+@@++o@@@o@+@@@o+@@++o@@@o@+@@",
"OO++ooOoo++O+OOOOO++ooOoo++O+OOOOO++ooOoo++O+OOO",
"OooO+OoX++OoooooOooO+OoX++OoooooOooO+OoX++Oooooo",
" ..  .XXX. .     ..  .XXX. .     ..  .XXX. .    "
};
