/* XPM */
static char *_9708_7710983d047945c3ede0173a0c214d90ea5250454e814a7d669b85347908105f[] = {
/* columns rows colors chars-per-pixel */
"48 48 16 1 ",
"  c gray32",
". c gray38",
"X c #6E6D6D",
"o c #888788",
"O c gray65",
"+ c gray71",
"@ c black",
"# c black",
"$ c black",
"% c black",
"& c black",
"* c black",
"= c black",
"- c black",
"; c black",
": c black",
/* pixels */
"X.OO ..O+Oo.o+OoX.OO ..O+Oo.o+OoX.OO ..O+Oo.o+Oo",
".O+oo ++Ooo .oXo.O+oo ++Ooo .oXo.O+oo ++Ooo .oXo",
".OoOX.OooOX. .oX.OoOX.OooOX. .oX.OoOX.OooOX. .oX",
"..oX..oXoX.oOo. ..oX..oXoX.oOo. ..oX..oXoX.oOo. ",
" X.o+O.o..+OOOo. X.o+O.o..+OOOo. X.o+O.o..+OOOo.",
"+XO+ooX. oo+OoXo+XO+ooX. oo+OoXo+XO+ooX. oo+OoXo",
"Oo.oOooX..XOoX.+Oo.oOooX..XOoX.+Oo.oOooX..XOoX.+",
"ooXXooX.o+O.Xo.oooXXooX.o+O.Xo.oooXXooX.o+O.Xo.o",
"X.+OXX.o+ooo.. XX.+OXX.o+ooo.. XX.+OXX.o+ooo.. X",
".+OoXoXXoo.X.oO..+OoXoXXoo.X.oO..+OoXoXXoo.X.oO.",
"oXoXo.. .XX. OO+oXoXo.. .XX. OO+oXoXo.. .XX. OO+",
"oXX..Xo+O.. o++ooXX..Xo+O.. o++ooXX..Xo+O.. o++o",
"Xo+OX.+OoOX.ooXoXo+OX.+OoOX.ooXoXo+OX.+OoOX.ooXo",
".+Ooo.OoXooX..oX.+Ooo.OoXooX..oX.+Ooo.OoXooX..oX",
"OOoXoX.XooX.Oo..OOoXoX.XooX.Oo..OOoXoX.XooX.Oo..",
".o..XoX.X..o+OoX.o..XoX.X..o+OoX.o..XoX.X..o+OoX",
"X.OO ..O+Oo.o+OoX.OO ..O+Oo.o+OoX.OO ..O+Oo.o+Oo",
".O+oo ++Ooo .oXo.O+oo ++Ooo .oXo.O+oo ++Ooo .oXo",
".OoOX.OooOX. .oX.OoOX.OooOX. .oX.OoOX.OooOX. .oX",
"..oX..oXoX.oOo. ..oX..oXoX.oOo. ..oX..oXoX.oOo. ",
" X.o+O.o..+OOOo. X.o+O.o..+OOOo. X.o+O.o..+OOOo.",
"+XO+ooX. oo+OoXo+XO+ooX. oo+OoXo+XO+ooX. oo+OoXo",
"Oo.oOooX..XOoX.+Oo.oOooX..XOoX.+Oo.oOooX..XOoX.+",
"ooXXooX.o+O.Xo.oooXXooX.o+O.Xo.oooXXooX.o+O.Xo.o",
"X.+OXX.o+ooo.. XX.+OXX.o+ooo.. XX.+OXX.o+ooo.. X",
".+OoXoXXoo.X.oO..+OoXoXXoo.X.oO..+OoXoXXoo.X.oO.",
"oXoXo.. .XX. OO+oXoXo.. .XX. OO+oXoXo.. .XX. OO+",
"oXX..Xo+O.. o++ooXX..Xo+O.. o++ooXX..Xo+O.. o++o",
"Xo+OX.+OoOX.ooXoXo+OX.+OoOX.ooXoXo+OX.+OoOX.ooXo",
".+Ooo.OoXooX..oX.+Ooo.OoXooX..oX.+Ooo.OoXooX..oX",
"OOoXoX.XooX.Oo..OOoXoX.XooX.Oo..OOoXoX.XooX.Oo..",
".o..XoX.X..o+OoX.o..XoX.X..o+OoX.o..XoX.X..o+OoX",
"X.OO ..O+Oo.o+OoX.OO ..O+Oo.o+OoX.OO ..O+Oo.o+Oo",
".O+oo ++Ooo .oXo.O+oo ++Ooo .oXo.O+oo ++Ooo .oXo",
".OoOX.OooOX. .oX.OoOX.OooOX. .oX.OoOX.OooOX. .oX",
"..oX..oXoX.oOo. ..oX..oXoX.oOo. ..oX..oXoX.oOo. ",
" X.o+O.o..+OOOo. X.o+O.o..+OOOo. X.o+O.o..+OOOo.",
"+XO+ooX. oo+OoXo+XO+ooX. oo+OoXo+XO+ooX. oo+OoXo",
"Oo.oOooX..XOoX.+Oo.oOooX..XOoX.+Oo.oOooX..XOoX.+",
"ooXXooX.o+O.Xo.oooXXooX.o+O.Xo.oooXXooX.o+O.Xo.o",
"X.+OXX.o+ooo.. XX.+OXX.o+ooo.. XX.+OXX.o+ooo.. X",
".+OoXoXXoo.X.oO..+OoXoXXoo.X.oO..+OoXoXXoo.X.oO.",
"oXoXo.. .XX. OO+oXoXo.. .XX. OO+oXoXo.. .XX. OO+",
"oXX..Xo+O.. o++ooXX..Xo+O.. o++ooXX..Xo+O.. o++o",
"Xo+OX.+OoOX.ooXoXo+OX.+OoOX.ooXoXo+OX.+OoOX.ooXo",
".+Ooo.OoXooX..oX.+Ooo.OoXooX..oX.+Ooo.OoXooX..oX",
"OOoXoX.XooX.Oo..OOoXoX.XooX.Oo..OOoXoX.XooX.Oo..",
".o..XoX.X..o+OoX.o..XoX.X..o+OoX.o..XoX.X..o+OoX"
};
