/* XPM */
static char *_4487_b4ca31ac1790ed84643eed3565891c82a1bdbb666275df7617b24a1721780f6b[] = {
/* columns rows colors chars-per-pixel */
"48 48 163 2 ",
"   c black",
".  c #FF2F15",
"X  c #FF221A",
"o  c #FF1A22",
"O  c #FF1530",
"+  c #FF3D3E",
"@  c #FF4F12",
"#  c #FF4637",
"$  c #FF5231",
"%  c #FF622D",
"&  c #FF7B29",
"*  c #FF1251",
"=  c #FF3647",
"-  c #FF3153",
";  c #FF2C64",
":  c #FF297D",
">  c #FF6B53",
",  c #FF536B",
"<  c #FF7D7E",
"1  c #FFA426",
"2  c #FFEF10",
"3  c #FFF723",
"4  c #FFFF21",
"5  c #FFFF32",
"6  c #FFF939",
"7  c #FF9544",
"8  c #FF8F70",
"9  c #FFA765",
"0  c #FFC85B",
"q  c #FFFF43",
"w  c #FFFF48",
"e  c #FFFF4D",
"r  c #FFFB54",
"t  c #FFFF54",
"y  c #FFFF61",
"u  c #FFFF65",
"i  c #FFFF6C",
"p  c #FFFB73",
"a  c #FFFF75",
"s  c #FFFF76",
"d  c #FFFF7E",
"f  c #FF26A8",
"g  c #FF4497",
"h  c #FF6F90",
"j  c #FF64A9",
"k  c #FF0FFF",
"l  c #E01FFF",
"z  c #C03FFF",
"x  c #DD31FF",
"c  c #EE20FF",
"v  c #FF23FF",
"b  c #FF39FF",
"n  c #A05FFF",
"m  c #BB53FF",
"M  c #807FFF",
"N  c #9975FF",
"B  c #AA64FF",
"V  c #B66CFF",
"C  c #FF5BCB",
"Z  c #CC42FF",
"A  c #DA47FF",
"S  c #EB4DFF",
"D  c #FF53FF",
"F  c #D760FF",
"G  c #C474FF",
"H  c #D47EFF",
"J  c #FF72FF",
"K  c #609FFF",
"L  c #7797FF",
"P  c #40BFFF",
"I  c #55B9FF",
"U  c #66A8FF",
"Y  c #6DB5FF",
"T  c #20DFFF",
"R  c #33DBFF",
"E  c cyan",
"W  c #11FDFF",
"Q  c #13FFFF",
"!  c #17FFFF",
"~  c #1CFFFF",
"^  c #22ECFF",
"/  c #24FDFF",
"(  c #24FFFF",
")  c #27FFFF",
"_  c #2AFFFF",
"`  c #2EFFFF",
"'  c #33FFFF",
"]  c #3AFDFF",
"[  c #38FFFF",
"{  c #3FFFFF",
"}  c #44CAFF",
"|  c #48D9FF",
" . c #75C2FF",
".. c #62D6FF",
"X. c #7FD3FF",
"o. c #4EEAFF",
"O. c #45FFFF",
"+. c #48FFFF",
"@. c #55FDFF",
"#. c #55FFFF",
"$. c #5CFFFF",
"%. c #66FFFF",
"&. c #6DFFFF",
"*. c #73FDFF",
"=. c #71FFFF",
"-. c #7FFFFF",
";. c #FFB38C",
":. c #FF8BB5",
">. c #FFBDBE",
",. c #FFFF87",
"<. c #FFFF88",
"1. c #FFFF8A",
"2. c #FFFF91",
"3. c #FFFC98",
"4. c #FFFF98",
"5. c #FFFF9C",
"6. c #FFD8A9",
"7. c #FFFFA1",
"8. c #FFFFA9",
"9. c #FFFFB0",
"0. c #FFFFB5",
"q. c #FFFFB9",
"w. c #FFFFBA",
"e. c #8886FF",
"r. c #9190FF",
"t. c #9C9BFF",
"y. c #B088FF",
"u. c #89AFFF",
"i. c #AAA8FF",
"p. c #B9B8FF",
"a. c #FFA8DA",
"s. c #E789FF",
"d. c #FF97FF",
"f. c #D0A0FF",
"g. c #A2CFFF",
"h. c #8BE6FF",
"j. c #8DFFFF",
"k. c #91FFFF",
"l. c #99FDFF",
"z. c #99FFFF",
"x. c #AAFFFF",
"c. c #B6FFFF",
"v. c #BFFFFF",
"b. c #FFFFC3",
"n. c #FFFCC5",
"m. c #FFFFCB",
"M. c #FFFFD0",
"N. c #FFFFD4",
"B. c #FFFFD7",
"V. c #FFFFDA",
"C. c #FFFFDC",
"Z. c #CCCAFF",
"A. c #FFC4FF",
"S. c #C6FDFF",
"D. c #CCFFFF",
"F. c #DAFFFF",
"G. c #FFFFE2",
"H. c #FFFFE7",
"J. c #FFFFEB",
"K. c #FFFFED",
"L. c #E2E0FF",
"P. c #FFFDFF",
"I. c white",
/* pixels */
"E E E E E E E E E E E E E E E E E E E E E E E E E E E E E E E E E E E E E E E E E E E E E E E E ",
"  W   Q   !   ~   (   '   #.  I.  W   Q   !   ~   (   '   #.  I.  W   Q   !   ~   (   '   #.  I.",
"T ^ / ) _ ` ' [ { +.#.%.-.x.I.K.T ^ / ) _ ` ' [ { +.#.%.-.x.I.K.T ^ / ) _ ` ' [ { +.#.%.-.x.I.K.",
"  R   ]   O.  #.  &.  z.  I.  C.  R   ]   O.  #.  &.  z.  I.  C.  R   ]   O.  #.  &.  z.  I.  C.",
"P } | o.@.$.%.=.-.k.x.D.I.J.V.m.P } | o.@.$.%.=.-.k.x.D.I.J.V.m.P } | o.@.$.%.=.-.k.x.D.I.J.V.m.",
"  I   ..  *.  j.  c.  I.  B.  w.  I   ..  *.  j.  c.  I.  B.  w.  I   ..  *.  j.  c.  I.  B.  w.",
"K U Y  .X.h.l.x.v.F.I.H.N.b.0.8.K U Y  .X.h.l.x.v.F.I.H.N.b.0.8.K U Y  .X.h.l.x.v.F.I.H.N.b.0.8.",
"  L   u.  g.  S.  I.  M.  9.  4.  L   u.  g.  S.  I.  M.  9.  4.  L   u.  g.  S.  I.  M.  9.  4.",
"M e.r.t.i.p.Z.L.P.G.m.q.8.5.2.,.M e.r.t.i.p.Z.L.P.G.m.q.8.5.2.,.M e.r.t.i.p.Z.L.P.G.m.q.8.5.2.,.",
"  N   y.  f.  A.  n.  7.  <.  s   N   y.  f.  A.  n.  7.  <.  s   N   y.  f.  A.  n.  7.  <.  s ",
"n B V G H s.d.a.>.6.3.1.d a i u n B V G H s.d.a.>.6.3.1.d a i u n B V G H s.d.a.>.6.3.1.d a i u ",
"  m   F   J   :.  ;.  p   y   t   m   F   J   :.  ;.  p   y   t   m   F   J   :.  ;.  p   y   t ",
"z Z A S D C j h < 8 9 0 r e w q z Z A S D C j h < 8 9 0 r e w q z Z A S D C j h < 8 9 0 r e w q ",
"  x   b   g   ,   >   7   6   5   x   b   g   ,   >   7   6   5   x   b   g   ,   >   7   6   5 ",
"l c v f : ; - = + # $ % & 1 3 4 l c v f : ; - = + # $ % & 1 3 4 l c v f : ; - = + # $ % & 1 3 4 ",
"  k   *   O   o   X   .   @   2   k   *   O   o   X   .   @   2   k   *   O   o   X   .   @   2 ",
"E E E E E E E E E E E E E E E E E E E E E E E E E E E E E E E E E E E E E E E E E E E E E E E E ",
"  W   Q   !   ~   (   '   #.  I.  W   Q   !   ~   (   '   #.  I.  W   Q   !   ~   (   '   #.  I.",
"T ^ / ) _ ` ' [ { +.#.%.-.x.I.K.T ^ / ) _ ` ' [ { +.#.%.-.x.I.K.T ^ / ) _ ` ' [ { +.#.%.-.x.I.K.",
"  R   ]   O.  #.  &.  z.  I.  C.  R   ]   O.  #.  &.  z.  I.  C.  R   ]   O.  #.  &.  z.  I.  C.",
"P } | o.@.$.%.=.-.k.x.D.I.J.V.m.P } | o.@.$.%.=.-.k.x.D.I.J.V.m.P } | o.@.$.%.=.-.k.x.D.I.J.V.m.",
"  I   ..  *.  j.  c.  I.  B.  w.  I   ..  *.  j.  c.  I.  B.  w.  I   ..  *.  j.  c.  I.  B.  w.",
"K U Y  .X.h.l.x.v.F.I.H.N.b.0.8.K U Y  .X.h.l.x.v.F.I.H.N.b.0.8.K U Y  .X.h.l.x.v.F.I.H.N.b.0.8.",
"  L   u.  g.  S.  I.  M.  9.  4.  L   u.  g.  S.  I.  M.  9.  4.  L   u.  g.  S.  I.  M.  9.  4.",
"M e.r.t.i.p.Z.L.P.G.m.q.8.5.2.,.M e.r.t.i.p.Z.L.P.G.m.q.8.5.2.,.M e.r.t.i.p.Z.L.P.G.m.q.8.5.2.,.",
"  N   y.  f.  A.  n.  7.  <.  s   N   y.  f.  A.  n.  7.  <.  s   N   y.  f.  A.  n.  7.  <.  s ",
"n B V G H s.d.a.>.6.3.1.d a i u n B V G H s.d.a.>.6.3.1.d a i u n B V G H s.d.a.>.6.3.1.d a i u ",
"  m   F   J   :.  ;.  p   y   t   m   F   J   :.  ;.  p   y   t   m   F   J   :.  ;.  p   y   t ",
"z Z A S D C j h < 8 9 0 r e w q z Z A S D C j h < 8 9 0 r e w q z Z A S D C j h < 8 9 0 r e w q ",
"  x   b   g   ,   >   7   6   5   x   b   g   ,   >   7   6   5   x   b   g   ,   >   7   6   5 ",
"l c v f : ; - = + # $ % & 1 3 4 l c v f : ; - = + # $ % & 1 3 4 l c v f : ; - = + # $ % & 1 3 4 ",
"  k   *   O   o   X   .   @   2   k   *   O   o   X   .   @   2   k   *   O   o   X   .   @   2 ",
"E E E E E E E E E E E E E E E E E E E E E E E E E E E E E E E E E E E E E E E E E E E E E E E E ",
"  W   Q   !   ~   (   '   #.  I.  W   Q   !   ~   (   '   #.  I.  W   Q   !   ~   (   '   #.  I.",
"T ^ / ) _ ` ' [ { +.#.%.-.x.I.K.T ^ / ) _ ` ' [ { +.#.%.-.x.I.K.T ^ / ) _ ` ' [ { +.#.%.-.x.I.K.",
"  R   ]   O.  #.  &.  z.  I.  C.  R   ]   O.  #.  &.  z.  I.  C.  R   ]   O.  #.  &.  z.  I.  C.",
"P } | o.@.$.%.=.-.k.x.D.I.J.V.m.P } | o.@.$.%.=.-.k.x.D.I.J.V.m.P } | o.@.$.%.=.-.k.x.D.I.J.V.m.",
"  I   ..  *.  j.  c.  I.  B.  w.  I   ..  *.  j.  c.  I.  B.  w.  I   ..  *.  j.  c.  I.  B.  w.",
"K U Y  .X.h.l.x.v.F.I.H.N.b.0.8.K U Y  .X.h.l.x.v.F.I.H.N.b.0.8.K U Y  .X.h.l.x.v.F.I.H.N.b.0.8.",
"  L   u.  g.  S.  I.  M.  9.  4.  L   u.  g.  S.  I.  M.  9.  4.  L   u.  g.  S.  I.  M.  9.  4.",
"M e.r.t.i.p.Z.L.P.G.m.q.8.5.2.,.M e.r.t.i.p.Z.L.P.G.m.q.8.5.2.,.M e.r.t.i.p.Z.L.P.G.m.q.8.5.2.,.",
"  N   y.  f.  A.  n.  7.  <.  s   N   y.  f.  A.  n.  7.  <.  s   N   y.  f.  A.  n.  7.  <.  s ",
"n B V G H s.d.a.>.6.3.1.d a i u n B V G H s.d.a.>.6.3.1.d a i u n B V G H s.d.a.>.6.3.1.d a i u ",
"  m   F   J   :.  ;.  p   y   t   m   F   J   :.  ;.  p   y   t   m   F   J   :.  ;.  p   y   t ",
"z Z A S D C j h < 8 9 0 r e w q z Z A S D C j h < 8 9 0 r e w q z Z A S D C j h < 8 9 0 r e w q ",
"  x   b   g   ,   >   7   6   5   x   b   g   ,   >   7   6   5   x   b   g   ,   >   7   6   5 ",
"l c v f : ; - = + # $ % & 1 3 4 l c v f : ; - = + # $ % & 1 3 4 l c v f : ; - = + # $ % & 1 3 4 ",
"  k   *   O   o   X   .   @   2   k   *   O   o   X   .   @   2   k   *   O   o   X   .   @   2 "
};
