/* XPM */
static char *_2187_b968712eb005487e6ebbf121865d04172fbaf372c4186930aae0004787b5f8eb[] = {
/* columns rows colors chars-per-pixel */
"48 48 43 1 ",
"  c black",
". c #240000",
"X c #250000",
"o c #272700",
"O c #500000",
"+ c #7C0000",
"@ c #535300",
"# c #535400",
"$ c #7F7F00",
"% c #A80000",
"& c #D40000",
"* c red",
"= c #54FF54",
"- c #55FF55",
"; c #56FF55",
": c #56FF56",
"> c #ABAB00",
", c #D7D700",
"< c blue",
"1 c #0100FF",
"2 c #2A2AFF",
"3 c #2B2AFF",
"4 c #2B2BFF",
"5 c #5455FF",
"6 c #5555FF",
"7 c #5556FF",
"8 c #807FFF",
"9 c #80FF80",
"0 c #81FF80",
"q c #A9FFAA",
"w c #AAFFAB",
"e c #ABFFAB",
"r c #ABFFAC",
"t c #8080FF",
"y c #AAAAFF",
"u c #ABABFF",
"i c #D4FFD4",
"p c #D5FFD4",
"a c #D6FFD5",
"s c #D6FFD6",
"d c #D4D5FF",
"f c #D5D5FF",
"g c white",
/* pixels */
"        gggggggg        gggggggg        gggggggg",
" g*ggg* g      g g*ggg* g      g g*ggg* g      g",
" gg&&&g g iq = g gg&&&g g iq = g gg&&&g g iq = g",
" g%%%%g g pq = g g%%%%g g pq = g g%%%%g g pq = g",
" g++++g g aw - g g++++g g aw - g g++++g g aw - g",
" gOOOOg g se9; g gOOOOg g se9; g gOOOOg g se9; g",
" gX..Xg g sr0: g gX..Xg g sr0: g gX..Xg g sr0: g",
"        gggggggg        gggggggg        gggggggg",
"gggggggg        gggggggg        gggggggg        ",
"g     fg  gggg  g     fg  gggg  g     fg  gggg  ",
"g<46tu g goooog g<46tu g goooog g<46tu g goooog ",
"g137  fg @gg#@@ g137  fg @gg#@@ g137  fg @gg#@@ ",
"g<36ty g $$$gg$ g<36ty g $$$gg$ g<36ty g $$$gg$ ",
"g<258y g g>>>>g g<258y g g>>>>g g<258y g g>>>>g ",
"g     dg ,gggg, g     dg ,gggg, g     dg ,gggg, ",
"gggggggg        gggggggg        gggggggg        ",
"        gggggggg        gggggggg        gggggggg",
" g*ggg* g      g g*ggg* g      g g*ggg* g      g",
" gg&&&g g iq = g gg&&&g g iq = g gg&&&g g iq = g",
" g%%%%g g pq = g g%%%%g g pq = g g%%%%g g pq = g",
" g++++g g aw - g g++++g g aw - g g++++g g aw - g",
" gOOOOg g se9; g gOOOOg g se9; g gOOOOg g se9; g",
" gX..Xg g sr0: g gX..Xg g sr0: g gX..Xg g sr0: g",
"        gggggggg        gggggggg        gggggggg",
"gggggggg        gggggggg        gggggggg        ",
"g     fg  gggg  g     fg  gggg  g     fg  gggg  ",
"g<46tu g goooog g<46tu g goooog g<46tu g goooog ",
"g137  fg @gg#@@ g137  fg @gg#@@ g137  fg @gg#@@ ",
"g<36ty g $$$gg$ g<36ty g $$$gg$ g<36ty g $$$gg$ ",
"g<258y g g>>>>g g<258y g g>>>>g g<258y g g>>>>g ",
"g     dg ,gggg, g     dg ,gggg, g     dg ,gggg, ",
"gggggggg        gggggggg        gggggggg        ",
"        gggggggg        gggggggg        gggggggg",
" g*ggg* g      g g*ggg* g      g g*ggg* g      g",
" gg&&&g g iq = g gg&&&g g iq = g gg&&&g g iq = g",
" g%%%%g g pq = g g%%%%g g pq = g g%%%%g g pq = g",
" g++++g g aw - g g++++g g aw - g g++++g g aw - g",
" gOOOOg g se9; g gOOOOg g se9; g gOOOOg g se9; g",
" gX..Xg g sr0: g gX..Xg g sr0: g gX..Xg g sr0: g",
"        gggggggg        gggggggg        gggggggg",
"gggggggg        gggggggg        gggggggg        ",
"g     fg  gggg  g     fg  gggg  g     fg  gggg  ",
"g<46tu g goooog g<46tu g goooog g<46tu g goooog ",
"g137  fg @gg#@@ g137  fg @gg#@@ g137  fg @gg#@@ ",
"g<36ty g $$$gg$ g<36ty g $$$gg$ g<36ty g $$$gg$ ",
"g<258y g g>>>>g g<258y g g>>>>g g<258y g g>>>>g ",
"g     dg ,gggg, g     dg ,gggg, g     dg ,gggg, ",
"gggggggg        gggggggg        gggggggg        "
};
