/* XPM */
static char *result[] = {
/* columns rows colors chars-per-pixel */
"32 32 16 1 ",
"  c black",
". c #215800",
"X c #297100",
"o c #2F8200",
"O c #389306",
"+ c #509529",
"@ c black",
"# c black",
"$ c black",
"% c black",
"& c black",
"* c black",
"= c black",
"- c black",
"; c black",
": c black",
/* pixels */
"                                ",
"                                ",
"                                ",
"                                ",
"                                ",
"                                ",
"                                ",
"                                ",
"                                ",
"                                ",
"                                ",
"                                ",
"                                ",
"                                ",
"                                ",
"                                ",
"          Oo oOo Xo             ",
"          Oo o o Oo             ",
"          +o o o +o             ",
"          +o o o +o   +         ",
"          +X X o +X   O         ",
"          +. . oO+.   o         ",
"          .X X o+.XX O          ",
"          .O O o+ OO o          ",
"          .o o X+ .o o          ",
"          Xo oo.+ Xo o          ",
"          .o XoX. .o X          ",
"          .o XoO. .ooX          ",
"         .o. X.o. o..X          ",
"         .X. X.oX.X..o          ",
"         .o. o.o..o..o          ",
"         ...oooo....o.          "
};
