/* XPM */
static char *_8439_618a47c240ccbe0412064b70d7fe6c37f5e7ada4f9c71ae12994914a0bf9946f[] = {
/* columns rows colors chars-per-pixel */
"48 48 16 1 ",
"  c #74A6FB",
". c #80ADFB",
"X c #8DB5FD",
"o c #98BDFD",
"O c #B5D0FD",
"+ c #BAD3FD",
"@ c black",
"# c black",
"$ c black",
"% c black",
"& c black",
"* c black",
"= c black",
"- c black",
"; c black",
": c black",
/* pixels */
"....X+oXX...ooo.....X+oXX...ooo.....X+oXX...ooo.",
"...XooXX...XoX.....XooXX...XoX.....XooXX...XoX..",
"..XoXXXXX.XoX.....XoXXXXX.XoX.....XoXXXXX.XoX...",
"XX.XXXXX.XXX....XX.XXXXX.XXX....XX.XXXXX.XXX....",
"X...XXX.......XXX...XXX.......XXX...XXX.......XX",
"...XXX.  ..XXXoo...XXX.  ..XXXoo...XXX.  ..XXXoo",
"..XX..  ..XXooX...XX..  ..XXooX...XX..  ..XXooX.",
".........XXo+oX..........XXo+oX..........XXo+oX.",
".XX..X....o+oXX..XX..X....o+oXX..XX..X....o+oXX.",
"XXXXXX...oOoXX..XXXXXX...oOoXX..XXXXXX...oOoXX..",
"XXXoX...XoXXX..XXXXoX...XoXXX..XXXXoX...XoXXX..X",
"XooX...XoX.XX..XXooX...XoX.XX..XXooX...XoX.XX..X",
"ooX.. .X...X..XXooX.. .X...X..XXooX.. .X...X..XX",
"Oo..  ...X...XXXOo..  ...X...XXXOo..  ...X...XXX",
"o..  ..XoX....oOo..  ..XoX....oOo..  ..XoX....oO",
".....X+oX....o+o.....X+oX....o+o.....X+oX....o+o",
"....X+oXX...ooo.....X+oXX...ooo.....X+oXX...ooo.",
"...XooXX...XoX.....XooXX...XoX.....XooXX...XoX..",
"..XoXXXXX.XoX.....XoXXXXX.XoX.....XoXXXXX.XoX...",
"XX.XXXXX.XXX....XX.XXXXX.XXX....XX.XXXXX.XXX....",
"X...XXX.......XXX...XXX.......XXX...XXX.......XX",
"...XXX.  ..XXXoo...XXX.  ..XXXoo...XXX.  ..XXXoo",
"..XX..  ..XXooX...XX..  ..XXooX...XX..  ..XXooX.",
".........XXo+oX..........XXo+oX..........XXo+oX.",
".XX..X....o+oXX..XX..X....o+oXX..XX..X....o+oXX.",
"XXXXXX...oOoXX..XXXXXX...oOoXX..XXXXXX...oOoXX..",
"XXXoX...XoXXX..XXXXoX...XoXXX..XXXXoX...XoXXX..X",
"XooX...XoX.XX..XXooX...XoX.XX..XXooX...XoX.XX..X",
"ooX.. .X...X..XXooX.. .X...X..XXooX.. .X...X..XX",
"Oo..  ...X...XXXOo..  ...X...XXXOo..  ...X...XXX",
"o..  ..XoX....oOo..  ..XoX....oOo..  ..XoX....oO",
".....X+oX....o+o.....X+oX....o+o.....X+oX....o+o",
"....X+oXX...ooo.....X+oXX...ooo.....X+oXX...ooo.",
"...XooXX...XoX.....XooXX...XoX.....XooXX...XoX..",
"..XoXXXXX.XoX.....XoXXXXX.XoX.....XoXXXXX.XoX...",
"XX.XXXXX.XXX....XX.XXXXX.XXX....XX.XXXXX.XXX....",
"X...XXX.......XXX...XXX.......XXX...XXX.......XX",
"...XXX.  ..XXXoo...XXX.  ..XXXoo...XXX.  ..XXXoo",
"..XX..  ..XXooX...XX..  ..XXooX...XX..  ..XXooX.",
".........XXo+oX..........XXo+oX..........XXo+oX.",
".XX..X....o+oXX..XX..X....o+oXX..XX..X....o+oXX.",
"XXXXXX...oOoXX..XXXXXX...oOoXX..XXXXXX...oOoXX..",
"XXXoX...XoXXX..XXXXoX...XoXXX..XXXXoX...XoXXX..X",
"XooX...XoX.XX..XXooX...XoX.XX..XXooX...XoX.XX..X",
"ooX.. .X...X..XXooX.. .X...X..XXooX.. .X...X..XX",
"Oo..  ...X...XXXOo..  ...X...XXXOo..  ...X...XXX",
"o..  ..XoX....oOo..  ..XoX....oOo..  ..XoX....oO",
".....X+oX....o+o.....X+oX....o+o.....X+oX....o+o"
};
