/* XPM */
static char *_867_e6686035e247a9fb87b3f9fa6d459374489d48545b23a01395f77b5aeac85760[] = {
/* columns rows colors chars-per-pixel */
"48 48 16 1 ",
"  c #525D39",
". c #5A595A",
"X c #5A6D41",
"o c #627941",
"O c gray39",
"+ c #6A6D6A",
"@ c #787678",
"# c gray50",
"$ c #738552",
"% c #7A8F55",
"& c #8B898B",
"* c #9C999C",
"= c black",
"- c black",
"; c black",
": c black",
/* pixels */
"&*o$$%%$o*%%&$% &*o$$%%$o*%%&$% &*o$$%%$o*%%&$% ",
"*#&X%$%o&####ooX*#&X%$%o&####ooX*#&X%$%o&####ooX",
"*&#X$o$o##$&X#o.*&#X$o$o##$&X#o.*&#X$o$o##$&X#o.",
"*#@#X&$@#&#@#@X.*#@#X&$@#&#@#@X.*#@#X&$@#&#@#@X.",
"*@o@@#o##o$#@+#.*@o@@#o##o$#@+#.*@o@@#o##o$#@+#.",
"&@Xo#@@@o$oXX#@ &@Xo#@@@o$oXX#@ &@Xo#@@@o$oXX#@ ",
"@+XX+@+XooXX@@#X@+XX+@+XooXX@@#X@+XX+@+XooXX@@#X",
"OO. OO...    OOOOO. OO...    OOOOO. OO...    OOO",
"%%$***&.&****$%%%%$***&.&****$%%%%$***&.&****$%%",
"o&&&&##.*&#&&&&$o&&&&##.*&#&&&&$o&&&&##.*&#&&&&$",
"&##&##@.*#@&@&o#&##&##@.*#@&@&o#&##&##@.*#@&@&o#",
"#&&##o+.*@#@##X&#&&##o+.*@#@##X&#&&##o+.*@#@##X&",
"####@o@.&$%#&#@@####@o@.&$%#&#@@####@o@.&$%#&#@@",
"@@+@oo@.&%#@@##@@@+@oo@.&%#@@##@@@+@oo@.&%#@@##@",
"++XXo@#.@XX@+@@+++XXo@#.@XX@+@@+++XXo@#.@XX@+@@+",
"O    O...   OO  O    O...   OO  O    O...   OO  ",
"&*o$$%%$o*%%&$% &*o$$%%$o*%%&$% &*o$$%%$o*%%&$% ",
"*#&X%$%o&####ooX*#&X%$%o&####ooX*#&X%$%o&####ooX",
"*&#X$o$o##$&X#o.*&#X$o$o##$&X#o.*&#X$o$o##$&X#o.",
"*#@#X&$@#&#@#@X.*#@#X&$@#&#@#@X.*#@#X&$@#&#@#@X.",
"*@o@@#o##o$#@+#.*@o@@#o##o$#@+#.*@o@@#o##o$#@+#.",
"&@Xo#@@@o$oXX#@ &@Xo#@@@o$oXX#@ &@Xo#@@@o$oXX#@ ",
"@+XX+@+XooXX@@#X@+XX+@+XooXX@@#X@+XX+@+XooXX@@#X",
"OO. OO...    OOOOO. OO...    OOOOO. OO...    OOO",
"%%$***&.&****$%%%%$***&.&****$%%%%$***&.&****$%%",
"o&&&&##.*&#&&&&$o&&&&##.*&#&&&&$o&&&&##.*&#&&&&$",
"&##&##@.*#@&@&o#&##&##@.*#@&@&o#&##&##@.*#@&@&o#",
"#&&##o+.*@#@##X&#&&##o+.*@#@##X&#&&##o+.*@#@##X&",
"####@o@.&$%#&#@@####@o@.&$%#&#@@####@o@.&$%#&#@@",
"@@+@oo@.&%#@@##@@@+@oo@.&%#@@##@@@+@oo@.&%#@@##@",
"++XXo@#.@XX@+@@+++XXo@#.@XX@+@@+++XXo@#.@XX@+@@+",
"O    O...   OO  O    O...   OO  O    O...   OO  ",
"&*o$$%%$o*%%&$% &*o$$%%$o*%%&$% &*o$$%%$o*%%&$% ",
"*#&X%$%o&####ooX*#&X%$%o&####ooX*#&X%$%o&####ooX",
"*&#X$o$o##$&X#o.*&#X$o$o##$&X#o.*&#X$o$o##$&X#o.",
"*#@#X&$@#&#@#@X.*#@#X&$@#&#@#@X.*#@#X&$@#&#@#@X.",
"*@o@@#o##o$#@+#.*@o@@#o##o$#@+#.*@o@@#o##o$#@+#.",
"&@Xo#@@@o$oXX#@ &@Xo#@@@o$oXX#@ &@Xo#@@@o$oXX#@ ",
"@+XX+@+XooXX@@#X@+XX+@+XooXX@@#X@+XX+@+XooXX@@#X",
"OO. OO...    OOOOO. OO...    OOOOO. OO...    OOO",
"%%$***&.&****$%%%%$***&.&****$%%%%$***&.&****$%%",
"o&&&&##.*&#&&&&$o&&&&##.*&#&&&&$o&&&&##.*&#&&&&$",
"&##&##@.*#@&@&o#&##&##@.*#@&@&o#&##&##@.*#@&@&o#",
"#&&##o+.*@#@##X&#&&##o+.*@#@##X&#&&##o+.*@#@##X&",
"####@o@.&$%#&#@@####@o@.&$%#&#@@####@o@.&$%#&#@@",
"@@+@oo@.&%#@@##@@@+@oo@.&%#@@##@@@+@oo@.&%#@@##@",
"++XXo@#.@XX@+@@+++XXo@#.@XX@+@@+++XXo@#.@XX@+@@+",
"O    O...   OO  O    O...   OO  O    O...   OO  "
};
