/* XPM */
static char *_320_81cbd4044879734a9be7761c477afcfb05b068120d4849ec814c67a1a7f3eb5f[] = {
/* columns rows colors chars-per-pixel */
"48 48 16 1 ",
"  c #525D39",
". c gray32",
"X c #5A6D41",
"o c #627941",
"O c gray38",
"+ c #6E6D6D",
"@ c #738552",
"# c #7A8F55",
"$ c #888788",
"% c gray65",
"& c gray71",
"* c black",
"= c black",
"- c black",
"; c black",
": c black",
/* pixels */
"o %%X  X#@oO$&%@o %%X  X#@oO$&%@o %%X  X#@oO$&%@",
" %&$$ X#@o$ O$+$ %&$$ X#@o$ O$+$ %&$$ X#@o$ O$+$",
"O%$%+ @ooX+   $+O%$%+ @ooX+   $+O%$%+ @ooX+   $+",
"OO$+X $X$+ o@o  OO$+X $X$+ o@o  OO$+X $X$+ o@o  ",
".+O  $OXOO$@@@oX.+O  $OXOO$@@@oX.+O  $OXOO$@@@oX",
"& #@$%+O.$%o$oX$& #@$%+O.$%o$oX$& #@$%+O.$%o$oX$",
"%$ o%$$+X  $$+ %%$ o%$$+X  $$+ %%$ o%$$+X  $$+ %",
"$$   $+ @@o +$O$$$   $+ @@o +$O$$$   $+ @@o +$O$",
"+  #@o o$o@oXO.++  #@o o$o@oXO.++  #@o o$o@oXO.+",
" X@Xoo++$$Xo Xo  X@Xoo++$$Xo Xo  X@Xoo++$$Xo Xo ",
"$+ooX    ++X o@%$+ooX    ++X o@%$+ooX    ++X o@%",
"$  X Xo#@ O $%%$$  X Xo#@ O $%%$$  X Xo#@ O $%%$",
" X#@+ #@o@+O$$+$ X#@+ #@o@+O$$+$ X#@+ #@o@+O$$+$",
"o#o$$ @o+$$+  $+o#o$$ @o+$$+  $+o#o$$ @o+$$+  $+",
"$@$+$+ +$$+O $o $@$+$+ +$$+O $o $@$+$+ +$$+O $o ",
" $OO+X   OO$&%$o $OO+X   OO$&%$o $OO+X   OO$&%$o",
"o %%X  X#@oO$&%@o %%X  X#@oO$&%@o %%X  X#@oO$&%@",
" %&$$ X#@o$ O$+$ %&$$ X#@o$ O$+$ %&$$ X#@o$ O$+$",
"O%$%+ @ooX+   $+O%$%+ @ooX+   $+O%$%+ @ooX+   $+",
"OO$+X $X$+ o@o  OO$+X $X$+ o@o  OO$+X $X$+ o@o  ",
".+O  $OXOO$@@@oX.+O  $OXOO$@@@oX.+O  $OXOO$@@@oX",
"& #@$%+O.$%o$oX$& #@$%+O.$%o$oX$& #@$%+O.$%o$oX$",
"%$ o%$$+X  $$+ %%$ o%$$+X  $$+ %%$ o%$$+X  $$+ %",
"$$   $+ @@o +$O$$$   $+ @@o +$O$$$   $+ @@o +$O$",
"+  #@o o$o@oXO.++  #@o o$o@oXO.++  #@o o$o@oXO.+",
" X@Xoo++$$Xo Xo  X@Xoo++$$Xo Xo  X@Xoo++$$Xo Xo ",
"$+ooX    ++X o@%$+ooX    ++X o@%$+ooX    ++X o@%",
"$  X Xo#@ O $%%$$  X Xo#@ O $%%$$  X Xo#@ O $%%$",
" X#@+ #@o@+O$$+$ X#@+ #@o@+O$$+$ X#@+ #@o@+O$$+$",
"o#o$$ @o+$$+  $+o#o$$ @o+$$+  $+o#o$$ @o+$$+  $+",
"$@$+$+ +$$+O $o $@$+$+ +$$+O $o $@$+$+ +$$+O $o ",
" $OO+X   OO$&%$o $OO+X   OO$&%$o $OO+X   OO$&%$o",
"o %%X  X#@oO$&%@o %%X  X#@oO$&%@o %%X  X#@oO$&%@",
" %&$$ X#@o$ O$+$ %&$$ X#@o$ O$+$ %&$$ X#@o$ O$+$",
"O%$%+ @ooX+   $+O%$%+ @ooX+   $+O%$%+ @ooX+   $+",
"OO$+X $X$+ o@o  OO$+X $X$+ o@o  OO$+X $X$+ o@o  ",
".+O  $OXOO$@@@oX.+O  $OXOO$@@@oX.+O  $OXOO$@@@oX",
"& #@$%+O.$%o$oX$& #@$%+O.$%o$oX$& #@$%+O.$%o$oX$",
"%$ o%$$+X  $$+ %%$ o%$$+X  $$+ %%$ o%$$+X  $$+ %",
"$$   $+ @@o +$O$$$   $+ @@o +$O$$$   $+ @@o +$O$",
"+  #@o o$o@oXO.++  #@o o$o@oXO.++  #@o o$o@oXO.+",
" X@Xoo++$$Xo Xo  X@Xoo++$$Xo Xo  X@Xoo++$$Xo Xo ",
"$+ooX    ++X o@%$+ooX    ++X o@%$+ooX    ++X o@%",
"$  X Xo#@ O $%%$$  X Xo#@ O $%%$$  X Xo#@ O $%%$",
" X#@+ #@o@+O$$+$ X#@+ #@o@+O$$+$ X#@+ #@o@+O$$+$",
"o#o$$ @o+$$+  $+o#o$$ @o+$$+  $+o#o$$ @o+$$+  $+",
"$@$+$+ +$$+O $o $@$+$+ +$$+O $o $@$+$+ +$$+O $o ",
" $OO+X   OO$&%$o $OO+X   OO$&%$o $OO+X   OO$&%$o"
};
