/* XPM */
static char *_8255_f18f0f64524b286ef6671fe436f361315bc49f35ba8e64830c321712a7c70e5c[] = {
/* columns rows colors chars-per-pixel */
"48 48 16 1 ",
"  c #382B18",
". c #4C3D26",
"X c #5F4A2B",
"o c #745A36",
"O c #917142",
"+ c #987849",
"@ c black",
"# c black",
"$ c black",
"% c black",
"& c black",
"* c black",
"= c black",
"- c black",
"; c black",
": c black",
/* pixels */
"o.Ooo Ooo oO.OoXo.Ooo Ooo oO.OoXo.Ooo Ooo oO.OoX",
"o.+Xo +Xo oO.ooXo.+Xo +Xo oO.ooXo.+Xo +Xo oO.ooX",
"o XXo +Xo.o..ooXo XXo +Xo.o..ooXo XXo +Xo.o..ooX",
"O oXo.oXoXo .oOXO oXo.oXoXo .oOXO oXo.oXoXo .oOX",
"O.oXo oX+XoXo.OoO.oXo oX+XoXo.OoO.oXo oX+XoXo.Oo",
"Oo.oO.o.+XO.o.OoOo.oO.o.+XO.o.OoOo.oO.o.+XO.o.Oo",
"Xo.oOXXoOoOoo.OoXo.oOXXoOoOoo.OoXo.oOXXoOoOoo.Oo",
"Xo oOoXOooOXoXOoXo oOoXOooOXoXOoXo oOoXOooOXoXOo",
"o. +ooXOoXOXOXOoo. +ooXOoXOXOXOoo. +ooXOoXOXOXOo",
"oo.+ooXooXO.Oo ooo.+ooXooXO.Oo ooo.+ooXooXO.Oo o",
"oooOoXo oXo.Oo ooooOoXo oXo.Oo ooooOoXo oXo.Oo o",
"o.oOoXo +oo +o.oo.oOoXo +oo +o.oo.oOoXo +oo +o.o",
"+.ooOXO +Xo ooXo+.ooOXO +Xo ooXo+.ooOXO +Xo ooXo",
"+o.oOoo.OXo.oooo+o.oOoo.OXo.oooo+o.oOoo.OXo.oooo",
"Oo.OooO o.o..OooOo.OooO o.o..OooOo.OooO o.o..Ooo",
"Oo.O.oO.o.oo.OoXOo.O.oO.o.oo.OoXOo.O.oO.o.oo.OoX",
"o.Ooo Ooo oO.OoXo.Ooo Ooo oO.OoXo.Ooo Ooo oO.OoX",
"o.+Xo +Xo oO.ooXo.+Xo +Xo oO.ooXo.+Xo +Xo oO.ooX",
"o XXo +Xo.o..ooXo XXo +Xo.o..ooXo XXo +Xo.o..ooX",
"O oXo.oXoXo .oOXO oXo.oXoXo .oOXO oXo.oXoXo .oOX",
"O.oXo oX+XoXo.OoO.oXo oX+XoXo.OoO.oXo oX+XoXo.Oo",
"Oo.oO.o.+XO.o.OoOo.oO.o.+XO.o.OoOo.oO.o.+XO.o.Oo",
"Xo.oOXXoOoOoo.OoXo.oOXXoOoOoo.OoXo.oOXXoOoOoo.Oo",
"Xo oOoXOooOXoXOoXo oOoXOooOXoXOoXo oOoXOooOXoXOo",
"o. +ooXOoXOXOXOoo. +ooXOoXOXOXOoo. +ooXOoXOXOXOo",
"oo.+ooXooXO.Oo ooo.+ooXooXO.Oo ooo.+ooXooXO.Oo o",
"oooOoXo oXo.Oo ooooOoXo oXo.Oo ooooOoXo oXo.Oo o",
"o.oOoXo +oo +o.oo.oOoXo +oo +o.oo.oOoXo +oo +o.o",
"+.ooOXO +Xo ooXo+.ooOXO +Xo ooXo+.ooOXO +Xo ooXo",
"+o.oOoo.OXo.oooo+o.oOoo.OXo.oooo+o.oOoo.OXo.oooo",
"Oo.OooO o.o..OooOo.OooO o.o..OooOo.OooO o.o..Ooo",
"Oo.O.oO.o.oo.OoXOo.O.oO.o.oo.OoXOo.O.oO.o.oo.OoX",
"o.Ooo Ooo oO.OoXo.Ooo Ooo oO.OoXo.Ooo Ooo oO.OoX",
"o.+Xo +Xo oO.ooXo.+Xo +Xo oO.ooXo.+Xo +Xo oO.ooX",
"o XXo +Xo.o..ooXo XXo +Xo.o..ooXo XXo +Xo.o..ooX",
"O oXo.oXoXo .oOXO oXo.oXoXo .oOXO oXo.oXoXo .oOX",
"O.oXo oX+XoXo.OoO.oXo oX+XoXo.OoO.oXo oX+XoXo.Oo",
"Oo.oO.o.+XO.o.OoOo.oO.o.+XO.o.OoOo.oO.o.+XO.o.Oo",
"Xo.oOXXoOoOoo.OoXo.oOXXoOoOoo.OoXo.oOXXoOoOoo.Oo",
"Xo oOoXOooOXoXOoXo oOoXOooOXoXOoXo oOoXOooOXoXOo",
"o. +ooXOoXOXOXOoo. +ooXOoXOXOXOoo. +ooXOoXOXOXOo",
"oo.+ooXooXO.Oo ooo.+ooXooXO.Oo ooo.+ooXooXO.Oo o",
"oooOoXo oXo.Oo ooooOoXo oXo.Oo ooooOoXo oXo.Oo o",
"o.oOoXo +oo +o.oo.oOoXo +oo +o.oo.oOoXo +oo +o.o",
"+.ooOXO +Xo ooXo+.ooOXO +Xo ooXo+.ooOXO +Xo ooXo",
"+o.oOoo.OXo.oooo+o.oOoo.OXo.oooo+o.oOoo.OXo.oooo",
"Oo.OooO o.o..OooOo.OooO o.o..OooOo.OooO o.o..Ooo",
"Oo.O.oO.o.oo.OoXOo.O.oO.o.oo.OoXOo.O.oO.o.oo.OoX"
};
