/* XPM */
static char *result[] = {
/* columns rows colors chars-per-pixel */
"94 94 16 1 ",
"  c black",
". c #DDD9CB",
"X c #E2DED0",
"o c #EAE2DA",
"O c #EEE6DE",
"+ c #EEEAE6",
"@ c #F2EFED",
"# c black",
"$ c black",
"% c black",
"& c black",
"* c black",
"= c black",
"- c black",
"; c black",
": c black",
/* pixels */
"                       XX...XXXXXXX....XX...XXXXXXX....XX...XXXXXXX....                       ",
"                       +oOoOO+++++OOOOX+oOoOO+++++OOOOX+oOoOO+++++OOOOX                       ",
"                       @OOOooOO++++++O.@OOOooOO++++++O.@OOOooOO++++++O.                       ",
"                       @+++OOoOOoOO+++.@+++OOoOOoOO+++.@+++OOoOOoOO+++.                       ",
"                       @+++++OOoooooo+.@+++++OOoooooo+.@+++++OOoooooo+.                       ",
"                       @+++++++++OooooX@+++++++++OooooX@+++++++++OooooX                       ",
"                       @OOooO++++++++O.@OOooO++++++++O.@OOooO++++++++O.                       ",
"                       @++OOoooOO+++++.@++OOoooOO+++++.@++OOoooOO+++++.                       ",
"                               OOOOOOO.@++++++OOOOOOOO.@++++++O                               ",
"                               ooooOOO.@OOO++++ooooOOO.@OOO++++                               ",
"                               OOoooooX@OOoooooOOoooooX@OOooooo                               ",
"                               oOOooooX+oOOOOoooOOooooX+oOOOOoo                               ",
"                               +++OOOO.+oooooOO+++OOOO.+oooooOO                               ",
"                               oO++++O.@OOooooooO++++O.@OOooooo                               ",
"                               ooo++++X@+OOOOooooo++++X@+OOOOoo                               ",
"                               @@@@@@@@@@@@@@@@@@@@@@@@@@@@@@@@                               ",
"                                       X+X+X@o@o+o@X+o+                                       ",
"                                       X+X@X+o@X@o@X@o+                                       ",
"                                       X+o@o@o@o+X@o@X+                                       ",
"                                       X@o@o@X+o@X@o@o@                                       ",
"                                       o@o@X@o+X@X+o+o@                                       ",
"                                       o@X+X@o+X@o+X@o@                                       ",
"                                       o@X+o@o@o@X+X@X@                                       ",
"                                       o+X@o@X@o@X@o@X@                                       ",
"                                       o+o@X@X@o@o@X@o+                                       ",
"                                       X+o@o@o@X+o@o+o+                                       ",
"                                       o@o@o+o@X+X+o+X@                                       ",
"                                       o@X+o+o@o+X@X+X@                                       ",
"                                       o@X+o+X@o@X@o@X@                                       ",
"                                       o@X+X+o@X@X@o@o@                                       ",
"                                       X@o+X@o@X@o+o@o+                                       ",
"                                       X+o+o@o@X+o+o+X+                                       ",
"                                       X+X@X+o@X@o@X@o+                                       ",
"                                       X+o@o@o@o+X@o@X+                                       ",
"                                       X@o@o@X+o@X@o@o@                                       ",
"                                       o@o@X@o+X@X+o+o@                                       ",
"                                       o@X+X@o+X@o+X@o@                                       ",
"                                       o@X+o@o@o@X+X@X@                                       ",
"                                       o+X@o@X@o@X@o@X@                                       ",
"                                       o+o@X@X@o@o@X@o+                                       ",
"                                       X+o@o@o@X+o@o+o+                                       ",
"                                       o@o@o+o@X+X+o+X@                                       ",
"                                       o@X+o+o@o+X@X+X@                                       ",
"                                       o@X+o+X@o@X@o@X@                                       ",
"                                       o@X+X+o@X@X@o@o@                                       ",
"                                       X@o+X@o@X@o+o@o+                                       ",
"                                       X+o+o@o@X+o+o+X+                                       ",
"                                       X+X@X+o@X@o@X@o+                                       ",
"                                       X+o@o@o@o+X@o@X+                                       ",
"                                       X@o@o@X+o@X@o@o@                                       ",
"                                       o@o@X@o+X@X+o+o@                                       ",
"                                       o@X+X@o+X@o+X@o@                                       ",
"                                       o@X+o@o@o@X+X@X@                                       ",
"                                       o+X@o@X@o@X@o@X@                                       ",
"                                       o+o@X@X@o@o@X@o+                                       ",
"                                       X+o@o@o@X+o@o+o+                                       ",
"                                       o@o@o+o@X+X+o+X@                                       ",
"                                       o@X+o+o@o+X@X+X@                                       ",
"                                       o@X+o+X@o@X@o@X@                                       ",
"                                       o@X+X+o@X@X@o@o@                                       ",
"                                       X@o+X@o@X@o+o@o+                                       ",
"                                       X+o+o@o@X+o+o+X+                                       ",
"                                       X+X+X@o@o+o@X+o+                                       ",
"                                       X+X@X+o@X@o@X@o+                                       ",
"                                       X+o@o@o@o+X@o@X+                                       ",
"                                       X@o@o@X+o@X@o@o@                                       ",
"                                       o@o@X@o+X@X+o+o@                                       ",
"                                       o@X+X@o+X@o+X@o@                                       ",
"                                       o@X+o@o@o@X+X@X@                                       ",
"                                       o+X@o@X@o@X@o@X@                                       ",
"                                       o+o@X@X@o@o@X@o+                                       ",
"                                       X+o@o@o@X+o@o+o+                                       ",
"                                       o@o@o+o@X+X+o+X@                                       ",
"                                       o@X+o+o@o+X@X+X@                                       ",
"                                       o@X+o+X@o@X@o@X@                                       ",
"                                       o@X+X+o@X@X@o@o@                                       ",
"                                       X@o+X@o@X@o+o@o+                                       ",
"                                       X+o+o@o@X+o+o+X+                                       ",
"                               @@@@@@@@@@@@@@@@@@@@@@@@@@@@@@@@                               ",
"                               ooo++++X@+OOOOooooo++++X@+OOOOoo                               ",
"                               oO++++O.@OOooooooO++++O.@OOooooo                               ",
"                               +++OOOO.+oooooOO+++OOOO.+oooooOO                               ",
"                               oOOooooX+oOOOOoooOOooooX+oOOOOoo                               ",
"                               OOoooooX@OOoooooOOoooooX@OOooooo                               ",
"                               ooooOOO.@OOO++++ooooOOO.@OOO++++                               ",
"                               OOOOOOO.@++++++OOOOOOOO.@++++++O                               ",
"                       @++OOoooOO+++++.@++OOoooOO+++++.@++OOoooOO+++++.                       ",
"                       @OOooO++++++++O.@OOooO++++++++O.@OOooO++++++++O.                       ",
"                       @+++++++++OooooX@+++++++++OooooX@+++++++++OooooX                       ",
"                       @+++++OOoooooo+.@+++++OOoooooo+.@+++++OOoooooo+.                       ",
"                       @+++OOoOOoOO+++.@+++OOoOOoOO+++.@+++OOoOOoOO+++.                       ",
"                       @OOOooOO++++++O.@OOOooOO++++++O.@OOOooOO++++++O.                       ",
"                       +oOoOO+++++OOOOX+oOoOO+++++OOOOX+oOoOO+++++OOOOX                       ",
"                       XX...XXXXXXX....XX...XXXXXXX....XX...XXXXXXX....                       "
};
