/* XPM */
static char *_395_c677cb0ab5863d8dda89e91a80d8354915788f60b2540ea587fe9cb977c8855b[] = {
/* columns rows colors chars-per-pixel */
"48 48 16 1 ",
"  c #C6AE71",
". c #D1BA8A",
"X c #D5C496",
"o c #DAD2A3",
"O c #E3DBB0",
"+ c #E7E4BB",
"@ c black",
"# c black",
"$ c black",
"% c black",
"& c black",
"* c black",
"= c black",
"- c black",
"; c black",
": c black",
/* pixels */
" XOO.o.Oooo+.oOO XOO.o.Oooo+.oOO XOO.o.Oooo+.oOO",
"XOoo.   ooo. OOXXOoo.   ooo. OOXXOoo.   ooo. OOX",
".oo.OOO. .  o X..oo.OOO. .  o X..oo.OOO. .  o X.",
"o .OooXo.+++.. +o .OooXo.+++.. +o .OooXo.+++.. +",
"o.oXoX+.OOooo.ooo.oXoX+.OOooo.ooo.oXoX+.OOooo.oo",
"o+..OO. OoOoO +oo+..OO. OoOoO +oo+..OO. OoOoO +o",
"ooo..   .ooX.  oooo..   .ooX.  oooo..   .ooX.  o",
"ooo+ O++.X.O++. ooo+ O++.X.O++. ooo+ O++.X.O++. ",
".o .OoooO.OoOo+ .o .OoooO.OoOo+ .o .OoooO.OoOo+ ",
".  Xoo+o  oXoooO.  Xoo+o  oXoooO.  Xoo+o  oXoooO",
"oOOX+oo.++.OOoo.oOOX+oo.++.OOoo.oOOX+oo.++.OOoo.",
"ooo . .+oX+. O .ooo . .+oX+. O .ooo . .+oX+. O .",
".o.++o oXoooo XO.o.++o oXoooo XO.o.++o oXoooo XO",
"O.+OO.+oooXO.o+XO.+OO.+oooXO.o+XO.+OO.+oooXO.o+X",
"o.OOX .+O.   .ooo.OOX .+O.   .ooo.OOX .+O.   .oo",
"oo...O+..O+.XX. oo...O+..O+.XX. oo...O+..O+.XX. ",
" XOO.o.Oooo+.oOO XOO.o.Oooo+.oOO XOO.o.Oooo+.oOO",
"XOoo.   ooo. OOXXOoo.   ooo. OOXXOoo.   ooo. OOX",
".oo.OOO. .  o X..oo.OOO. .  o X..oo.OOO. .  o X.",
"o .OooXo.+++.. +o .OooXo.+++.. +o .OooXo.+++.. +",
"o.oXoX+.OOooo.ooo.oXoX+.OOooo.ooo.oXoX+.OOooo.oo",
"o+..OO. OoOoO +oo+..OO. OoOoO +oo+..OO. OoOoO +o",
"ooo..   .ooX.  oooo..   .ooX.  oooo..   .ooX.  o",
"ooo+ O++.X.O++. ooo+ O++.X.O++. ooo+ O++.X.O++. ",
".o .OoooO.OoOo+ .o .OoooO.OoOo+ .o .OoooO.OoOo+ ",
".  Xoo+o  oXoooO.  Xoo+o  oXoooO.  Xoo+o  oXoooO",
"oOOX+oo.++.OOoo.oOOX+oo.++.OOoo.oOOX+oo.++.OOoo.",
"ooo . .+oX+. O .ooo . .+oX+. O .ooo . .+oX+. O .",
".o.++o oXoooo XO.o.++o oXoooo XO.o.++o oXoooo XO",
"O.+OO.+oooXO.o+XO.+OO.+oooXO.o+XO.+OO.+oooXO.o+X",
"o.OOX .+O.   .ooo.OOX .+O.   .ooo.OOX .+O.   .oo",
"oo...O+..O+.XX. oo...O+..O+.XX. oo...O+..O+.XX. ",
" XOO.o.Oooo+.oOO XOO.o.Oooo+.oOO XOO.o.Oooo+.oOO",
"XOoo.   ooo. OOXXOoo.   ooo. OOXXOoo.   ooo. OOX",
".oo.OOO. .  o X..oo.OOO. .  o X..oo.OOO. .  o X.",
"o .OooXo.+++.. +o .OooXo.+++.. +o .OooXo.+++.. +",
"o.oXoX+.OOooo.ooo.oXoX+.OOooo.ooo.oXoX+.OOooo.oo",
"o+..OO. OoOoO +oo+..OO. OoOoO +oo+..OO. OoOoO +o",
"ooo..   .ooX.  oooo..   .ooX.  oooo..   .ooX.  o",
"ooo+ O++.X.O++. ooo+ O++.X.O++. ooo+ O++.X.O++. ",
".o .OoooO.OoOo+ .o .OoooO.OoOo+ .o .OoooO.OoOo+ ",
".  Xoo+o  oXoooO.  Xoo+o  oXoooO.  Xoo+o  oXoooO",
"oOOX+oo.++.OOoo.oOOX+oo.++.OOoo.oOOX+oo.++.OOoo.",
"ooo . .+oX+. O .ooo . .+oX+. O .ooo . .+oX+. O .",
".o.++o oXoooo XO.o.++o oXoooo XO.o.++o oXoooo XO",
"O.+OO.+oooXO.o+XO.+OO.+oooXO.o+XO.+OO.+oooXO.o+X",
"o.OOX .+O.   .ooo.OOX .+O.   .ooo.OOX .+O.   .oo",
"oo...O+..O+.XX. oo...O+..O+.XX. oo...O+..O+.XX. "
};
