/* XPM */
static char *_4642_bc73748eb5d9df812eaca1e8a267eae47549eae17f2e9dc3aac8f728cd20d4fb[] = {
/* columns rows colors chars-per-pixel */
"48 48 16 1 ",
"  c #553A1F",
". c #5A4424",
"X c #614B2E",
"o c #70522E",
"O c #785836",
"+ c #7A5A34",
"@ c #82613A",
"# c #886539",
"$ c black",
"% c black",
"& c black",
"* c black",
"= c black",
"- c black",
"; c black",
": c black",
/* pixels */
"@+@#####@#####@X@+@#####@#####@X@+@#####@#####@X",
"@@++Xo+@@@++@@oo@@++Xo+@@@++@@oo@@++Xo+@@@++@@oo",
"+@@@+@Ooooo++@@X+@@@+@Ooooo++@@X+@@@+@Ooooo++@@X",
"X..XX.  .. .  . X..XX.  .. .  . X..XX.  .. .  . ",
"@#o####o###@++o@@#o####o###@++o@@#o####o###@++o@",
"+@@+o+oXo++@@@@++@@+o+oXo++@@@@++@@+o+oXo++@@@@+",
"oo+@+++X@@@++ooooo+@+++X@@@++ooooo+@+++X@@@++ooo",
"  ..X.    ...X.   ..X.    ...X.   ..X.    ...X. ",
"@##@++########@o@##@++########@o@##@++########@o",
"@+@@@@+ooo+o+ooX@+@@@@+ooo+o+ooX@+@@@@+ooo+o+ooX",
"#@++oooo++++oo@o#@++oooo++++oo@o#@++oooo++++oo@o",
"  .XX.   .X..     .XX.   .X..     .XX.   .X..   ",
"#o@##@@o###o#@###o@##@@o###o#@###o@##@@o###o#@##",
"++@@oo+oo@@+@+++++@@oo+oo@@+@+++++@@oo+oo@@+@+++",
"+oo+@+oX@@+ooooo+oo+@+oX@@+ooooo+oo+@+oX@@+ooooo",
" ..  .XXX. .     ..  .XXX. .     ..  .XXX. .    ",
"@+@#####@#####@X@+@#####@#####@X@+@#####@#####@X",
"@@++Xo+@@@++@@oo@@++Xo+@@@++@@oo@@++Xo+@@@++@@oo",
"+@@@+@Ooooo++@@X+@@@+@Ooooo++@@X+@@@+@Ooooo++@@X",
"X..XX.  .. .  . X..XX.  .. .  . X..XX.  .. .  . ",
"@#o####o###@++o@@#o####o###@++o@@#o####o###@++o@",
"+@@+o+oXo++@@@@++@@+o+oXo++@@@@++@@+o+oXo++@@@@+",
"oo+@+++X@@@++ooooo+@+++X@@@++ooooo+@+++X@@@++ooo",
"  ..X.    ...X.   ..X.    ...X.   ..X.    ...X. ",
"@##@++########@o@##@++########@o@##@++########@o",
"@+@@@@+ooo+o+ooX@+@@@@+ooo+o+ooX@+@@@@+ooo+o+ooX",
"#@++oooo++++oo@o#@++oooo++++oo@o#@++oooo++++oo@o",
"  .XX.   .X..     .XX.   .X..     .XX.   .X..   ",
"#o@##@@o###o#@###o@##@@o###o#@###o@##@@o###o#@##",
"++@@oo+oo@@+@+++++@@oo+oo@@+@+++++@@oo+oo@@+@+++",
"+oo+@+oX@@+ooooo+oo+@+oX@@+ooooo+oo+@+oX@@+ooooo",
" ..  .XXX. .     ..  .XXX. .     ..  .XXX. .    ",
"@+@#####@#####@X@+@#####@#####@X@+@#####@#####@X",
"@@++Xo+@@@++@@oo@@++Xo+@@@++@@oo@@++Xo+@@@++@@oo",
"+@@@+@Ooooo++@@X+@@@+@Ooooo++@@X+@@@+@Ooooo++@@X",
"X..XX.  .. .  . X..XX.  .. .  . X..XX.  .. .  . ",
"@#o####o###@++o@@#o####o###@++o@@#o####o###@++o@",
"+@@+o+oXo++@@@@++@@+o+oXo++@@@@++@@+o+oXo++@@@@+",
"oo+@+++X@@@++ooooo+@+++X@@@++ooooo+@+++X@@@++ooo",
"  ..X.    ...X.   ..X.    ...X.   ..X.    ...X. ",
"@##@++########@o@##@++########@o@##@++########@o",
"@+@@@@+ooo+o+ooX@+@@@@+ooo+o+ooX@+@@@@+ooo+o+ooX",
"#@++oooo++++oo@o#@++oooo++++oo@o#@++oooo++++oo@o",
"  .XX.   .X..     .XX.   .X..     .XX.   .X..   ",
"#o@##@@o###o#@###o@##@@o###o#@###o@##@@o###o#@##",
"++@@oo+oo@@+@+++++@@oo+oo@@+@+++++@@oo+oo@@+@+++",
"+oo+@+oX@@+ooooo+oo+@+oX@@+ooooo+oo+@+oX@@+ooooo",
" ..  .XXX. .     ..  .XXX. .     ..  .XXX. .    "
};
