/* XPM */
static char *_2469_37feb33126d36375ca82495be7aae4a591e02bdb19c7399e0aa33b482072f310[] = {
/* columns rows colors chars-per-pixel */
"48 48 16 1 ",
"  c #5A595A",
". c gray39",
"X c #6A6D6A",
"o c #787678",
"O c gray50",
"+ c #8B898B",
"@ c #9C999C",
"# c black",
"$ c black",
"% c black",
"& c black",
"* c black",
"= c black",
"- c black",
"; c black",
": c black",
/* pixels */
"+@@@@@@@@@@@+++ +@@@@@@@@@@@+++ +@@@@@@@@@@@+++ ",
"@O+O+++++OOOOO+ @O+O+++++OOOOO+ @O+O+++++OOOOO+ ",
"@+O+OOOOOO++oOO @+O+OOOOOO++oOO @+O+OOOOOO++oOO ",
"@OoO++OoO+OoOoo @OoO++OoO+OoOoo @OoO++OoO+OoOoo ",
"@oXooO+OOooOoXO @oXooO+OOooOoXO @oXooO+OOooOoXO ",
"+oXOOooooO+oXOo +oXOOooooO+oXOo +oXOOooooO+oXOo ",
"XXXXXXXXXXXXXXX XXXXXXXXXXXXXXX XXXXXXXXXXXXXXX ",
"..  ..   .........  ..   .........  ..   .......",
"@@@@@@+ +@@@@@@@@@@@@@+ +@@@@@@@@@@@@@+ +@@@@@@@",
"o++++OO @+O++++Oo++++OO @+O++++Oo++++OO @+O++++O",
"+OO+OOo @Oo+o+OO+OO+OOo @Oo+o+OO+OO+OOo @Oo+o+OO",
"O++OOoX @oOoOOO+O++OOoX @oOoOOO+O++OOoX @oOoOOO+",
"OOOOoOo +ooO+OooOOOOoOo +ooO+OooOOOOoOo +ooO+Ooo",
"ooXoXXo +OOooOOoooXoXXo +OOooOOoooXoXXo +OOooOOo",
"XXXXXXX XXXXXXXXXXXXXXX XXXXXXXXXXXXXXX XXXXXXXX",
"......    ............    ............    ......",
"+@@@@@@@@@@@+++ +@@@@@@@@@@@+++ +@@@@@@@@@@@+++ ",
"@O+O+++++OOOOO+ @O+O+++++OOOOO+ @O+O+++++OOOOO+ ",
"@+O+OOOOOO++oOO @+O+OOOOOO++oOO @+O+OOOOOO++oOO ",
"@OoO++OoO+OoOoo @OoO++OoO+OoOoo @OoO++OoO+OoOoo ",
"@oXooO+OOooOoXO @oXooO+OOooOoXO @oXooO+OOooOoXO ",
"+oXOOooooO+oXOo +oXOOooooO+oXOo +oXOOooooO+oXOo ",
"XXXXXXXXXXXXXXX XXXXXXXXXXXXXXX XXXXXXXXXXXXXXX ",
"..  ..   .........  ..   .........  ..   .......",
"@@@@@@+ +@@@@@@@@@@@@@+ +@@@@@@@@@@@@@+ +@@@@@@@",
"o++++OO @+O++++Oo++++OO @+O++++Oo++++OO @+O++++O",
"+OO+OOo @Oo+o+OO+OO+OOo @Oo+o+OO+OO+OOo @Oo+o+OO",
"O++OOoX @oOoOOO+O++OOoX @oOoOOO+O++OOoX @oOoOOO+",
"OOOOoOo +ooO+OooOOOOoOo +ooO+OooOOOOoOo +ooO+Ooo",
"ooXoXXo +OOooOOoooXoXXo +OOooOOoooXoXXo +OOooOOo",
"XXXXXXX XXXXXXXXXXXXXXX XXXXXXXXXXXXXXX XXXXXXXX",
"......    ............    ............    ......",
"+@@@@@@@@@@@+++ +@@@@@@@@@@@+++ +@@@@@@@@@@@+++ ",
"@O+O+++++OOOOO+ @O+O+++++OOOOO+ @O+O+++++OOOOO+ ",
"@+O+OOOOOO++oOO @+O+OOOOOO++oOO @+O+OOOOOO++oOO ",
"@OoO++OoO+OoOoo @OoO++OoO+OoOoo @OoO++OoO+OoOoo ",
"@oXooO+OOooOoXO @oXooO+OOooOoXO @oXooO+OOooOoXO ",
"+oXOOooooO+oXOo +oXOOooooO+oXOo +oXOOooooO+oXOo ",
"XXXXXXXXXXXXXXX XXXXXXXXXXXXXXX XXXXXXXXXXXXXXX ",
"..  ..   .........  ..   .........  ..   .......",
"@@@@@@+ +@@@@@@@@@@@@@+ +@@@@@@@@@@@@@+ +@@@@@@@",
"o++++OO @+O++++Oo++++OO @+O++++Oo++++OO @+O++++O",
"+OO+OOo @Oo+o+OO+OO+OOo @Oo+o+OO+OO+OOo @Oo+o+OO",
"O++OOoX @oOoOOO+O++OOoX @oOoOOO+O++OOoX @oOoOOO+",
"OOOOoOo +ooO+OooOOOOoOo +ooO+OooOOOOoOo +ooO+Ooo",
"ooXoXXo +OOooOOoooXoXXo +OOooOOoooXoXXo +OOooOOo",
"XXXXXXX XXXXXXXXXXXXXXX XXXXXXXXXXXXXXX XXXXXXXX",
"......    ............    ............    ......"
};
